<?xml version="1.0" encoding="UTF-8" standalone="no"?>
<!-- Created with Inkscape (http://www.inkscape.org/) -->

<svg
   version="1.1"
   width="48"
   height="48"
   id="svg5987"
   sodipodi:docname="Application-x-deb.svg"
   xml:space="preserve"
   inkscape:version="1.4.3 (0d15f75042, 2025-12-25)"
   xmlns:inkscape="http://www.inkscape.org/namespaces/inkscape"
   xmlns:sodipodi="http://sodipodi.sourceforge.net/DTD/sodipodi-0.dtd"
   xmlns:xlink="http://www.w3.org/1999/xlink"
   xmlns="http://www.w3.org/2000/svg"
   xmlns:svg="http://www.w3.org/2000/svg"><sodipodi:namedview
     id="namedview1"
     pagecolor="#ffffff"
     bordercolor="#000000"
     borderopacity="0.25"
     inkscape:showpageshadow="2"
     inkscape:pageopacity="0.0"
     inkscape:pagecheckerboard="0"
     inkscape:deskcolor="#d1d1d1"
     inkscape:zoom="4.1948572"
     inkscape:cx="-16.567906"
     inkscape:cy="19.547745"
     inkscape:window-width="2048"
     inkscape:window-height="1087"
     inkscape:window-x="0"
     inkscape:window-y="0"
     inkscape:window-maximized="1"
     inkscape:current-layer="layer1" /><defs
     id="defs5989"><radialGradient
       cx="5"
       cy="41.5"
       r="5"
       fx="5"
       fy="41.5"
       id="radialGradient3314"
       xlink:href="#linearGradient3681"
       gradientUnits="userSpaceOnUse"
       gradientTransform="matrix(0.5938225,0,0,1.5366531,41.140892,-103.93618)" /><linearGradient
       id="linearGradient3703"><stop
         id="stop3705"
         style="stop-color:black;stop-opacity:0"
         offset="0" /><stop
         id="stop3711"
         style="stop-color:black;stop-opacity:1"
         offset="0.5" /><stop
         id="stop3707"
         style="stop-color:black;stop-opacity:0"
         offset="1" /></linearGradient><linearGradient
       x1="17.554192"
       y1="46.000275"
       x2="17.554192"
       y2="34.999718"
       id="linearGradient3312"
       xlink:href="#linearGradient3703"
       gradientUnits="userSpaceOnUse"
       gradientTransform="matrix(1.7570316,0,0,1.3969574,-17.394014,-16.411698)" /><linearGradient
       id="linearGradient3681"><stop
         id="stop3683"
         style="stop-color:black;stop-opacity:1"
         offset="0" /><stop
         id="stop3685"
         style="stop-color:black;stop-opacity:0"
         offset="1" /></linearGradient><radialGradient
       cx="5"
       cy="41.5"
       r="5"
       fx="5"
       fy="41.5"
       id="radialGradient3310"
       xlink:href="#linearGradient3681"
       gradientUnits="userSpaceOnUse"
       gradientTransform="matrix(0.5938225,0,0,1.5366531,-6.6594735,-103.93618)" /><linearGradient
       id="linearGradient3295"><stop
         id="stop3297"
         style="stop-color:#c9af8b;stop-opacity:1"
         offset="0" /><stop
         id="stop3299"
         style="stop-color:#ad8757;stop-opacity:1"
         offset="0.23942046" /><stop
         id="stop3301"
         style="stop-color:#c2a57f;stop-opacity:1"
         offset="0.27582464" /><stop
         id="stop3303"
         style="stop-color:#9d7d53;stop-opacity:1"
         offset="1" /></linearGradient><linearGradient
       x1="15.464298"
       y1="7.9756851"
       x2="15.464298"
       y2="45.04248"
       id="linearGradient3293"
       xlink:href="#linearGradient3295"
       gradientUnits="userSpaceOnUse" /><linearGradient
       id="linearGradient3199"><stop
         id="stop3201"
         style="stop-color:#dac197;stop-opacity:1"
         offset="0" /><stop
         id="stop3203"
         style="stop-color:#c1a581;stop-opacity:1"
         offset="0.23942046" /><stop
         id="stop3205"
         style="stop-color:#dbc298;stop-opacity:1"
         offset="0.27582464" /><stop
         id="stop3207"
         style="stop-color:#a68b60;stop-opacity:1"
         offset="1" /></linearGradient><linearGradient
       x1="24.822832"
       y1="15.377745"
       x2="24.996943"
       y2="37.27668"
       id="linearGradient3197"
       xlink:href="#linearGradient3199"
       gradientUnits="userSpaceOnUse"
       gradientTransform="matrix(1.2822251,0,0,1.5572619,-6.0701918,-15.290756)" /><linearGradient
       id="linearGradient4559"><stop
         id="stop4561"
         style="stop-color:white;stop-opacity:0"
         offset="0" /><stop
         id="stop4563"
         style="stop-color:white;stop-opacity:0"
         offset="1" /></linearGradient><linearGradient
       x1="23.451576"
       y1="30.554907"
       x2="43.00663"
       y2="45.934479"
       id="linearGradient2659"
       xlink:href="#linearGradient4559"
       gradientUnits="userSpaceOnUse"
       gradientTransform="matrix(1.2822251,0,0,1.1746872,-6.0701918,-5.3031677)" /><linearGradient
       id="linearGradient3827"><stop
         id="stop3829"
         style="stop-color:white;stop-opacity:1"
         offset="0" /><stop
         id="stop4295"
         style="stop-color:white;stop-opacity:1"
         offset="0.3021296" /><stop
         id="stop4293"
         style="stop-color:white;stop-opacity:0.6901961"
         offset="0.34361121" /><stop
         id="stop3832"
         style="stop-color:white;stop-opacity:0"
         offset="1" /></linearGradient><linearGradient
       x1="26"
       y1="22"
       x2="26"
       y2="8"
       id="linearGradient3834"
       xlink:href="#linearGradient3827"
       gradientUnits="userSpaceOnUse" /><linearGradient
       id="linearGradient3275"><stop
         id="stop3277"
         style="stop-color:white;stop-opacity:0"
         offset="0" /><stop
         id="stop3283"
         style="stop-color:white;stop-opacity:1"
         offset="0.245" /><stop
         id="stop3285"
         style="stop-color:white;stop-opacity:1"
         offset="0.77350003" /><stop
         id="stop3279"
         style="stop-color:white;stop-opacity:0"
         offset="1" /></linearGradient><linearGradient
       x1="44.994774"
       y1="17.5"
       x2="3.0052247"
       y2="17.5"
       id="linearGradient3281"
       xlink:href="#linearGradient3275"
       gradientUnits="userSpaceOnUse"
       spreadMethod="reflect" /><inkscape:path-effect
       effect="mirror_symmetry"
       start_point="109.13712,84.210202"
       end_point="109.13712,142.43726"
       center_point="109.13712,113.32373"
       id="path-effect5"
       is_visible="true"
       lpeversion="1.2"
       lpesatellites=""
       mode="X"
       discard_orig_path="false"
       fuse_paths="false"
       oposite_fuse="false"
       split_items="false"
       split_open="false"
       link_styles="false" /><inkscape:path-effect
       effect="mirror_symmetry"
       start_point="109.13712,140.33572"
       end_point="109.13712,150.36985"
       center_point="109.13712,145.35279"
       id="path-effect4"
       is_visible="true"
       lpeversion="1.2"
       lpesatellites=""
       mode="X"
       discard_orig_path="false"
       fuse_paths="false"
       oposite_fuse="false"
       split_items="false"
       split_open="false"
       link_styles="false" /><inkscape:path-effect
       effect="mirror_symmetry"
       start_point="109.13713,48.873756"
       end_point="109.13713,190.75351"
       center_point="109.13713,119.81363"
       id="path-effect2"
       is_visible="true"
       lpeversion="1.2"
       lpesatellites=""
       mode="vertical"
       discard_orig_path="false"
       fuse_paths="false"
       oposite_fuse="false"
       split_items="false"
       split_open="false"
       link_styles="false" /><inkscape:perspective
       sodipodi:type="inkscape:persp3d"
       inkscape:vp_x="0 : -32.940006 : 1"
       inkscape:vp_y="0 : 999.99997 : 0"
       inkscape:vp_z="130.34883 : -29.295837 : 1"
       inkscape:persp3d-origin="105.00001 : -82.440008 : 1"
       id="perspective1" /><rect
       x="80.671883"
       y="468.29041"
       width="105.26696"
       height="55.092991"
       id="rect1" /></defs><g
     id="layer1"><g
       transform="matrix(0.9926623,0,0,0.9761474,0.2751901,1.2929634)"
       id="g3305"
       style="opacity:0.4;display:inline"><rect
         width="2.9601951"
         height="15.366531"
         x="-3.6903627"
         y="-47.848343"
         transform="scale(-1,-1)"
         id="rect2484"
         style="fill:url(#radialGradient3310);fill-opacity:1;stroke:none" /><rect
         width="40.41172"
         height="15.366531"
         x="3.6903627"
         y="32.481812"
         id="rect2486"
         style="fill:url(#linearGradient3312);fill-opacity:1;stroke:none" /><rect
         width="2.9601951"
         height="15.366531"
         x="44.110001"
         y="-47.848343"
         transform="scale(1,-1)"
         id="rect3444"
         style="fill:url(#radialGradient3314);fill-opacity:1;stroke:none;display:inline" /></g><path
       d="m 9.010725,8.5 29.497723,0 c 1.721985,0 2.496922,-0.2865505 2.991552,1 l 3.001734,8 0,25.673912 c 0,1.553304 0.10293,1.315976 -1.619063,1.315976 l -37.7653422,0 c -1.7219924,0 -1.6190635,0.237328 -1.6190635,-1.315976 L 3.4982653,17.5 6.5,9.5 c 0.4808316,-1.2605622 0.7887325,-1 2.510725,-1 z"
       id="path2488"
       style="fill:url(#linearGradient3197);fill-opacity:1;fill-rule:nonzero;stroke:url(#linearGradient3293);stroke-width:0.99420077;stroke-linecap:round;stroke-linejoin:miter;stroke-miterlimit:4;stroke-opacity:1;stroke-dasharray:none;stroke-dashoffset:0;marker:none;visibility:visible;display:block;overflow:visible" /><path
       d="m 9.948194,9.5129459 27.652872,0 c 1.614293,0 2.61338,0.5565361 3.289521,2.0860281 l 2.32894,6.419721 0,23.144557 c 0,1.460676 -0.818759,2.196085 -2.433056,2.196085 l -33.7332031,0 c -1.6142934,0 -2.2727761,-0.808827 -2.2727761,-2.269504 l 0,-23.071138 2.2538109,-6.55736 C 7.4850649,10.275943 8.3338968,9.5129459 9.948194,9.5129459 z"
       id="path2490"
       style="opacity:0.50549454;fill:none;stroke:url(#linearGradient2659);stroke-width:0.74211526;stroke-linecap:butt;stroke-linejoin:miter;stroke-miterlimit:4;stroke-opacity:1;stroke-dasharray:none;stroke-dashoffset:0;marker:none;visibility:visible;display:block;overflow:visible" /><path
       d="m 22,8 c 1.333333,0 2.666667,0 4,0 0,4.666667 0,9.333333 0,14 -0.393729,0 -0.787458,0 -1.181187,0 -0.403125,0 -0.80625,0 -1.209375,0 -0.324529,0 -0.649057,0 -0.973585,0 C 22.423902,22 22.211951,22 22,22 22,17.333333 22,12.666667 22,8 z"
       id="rect3326"
       style="opacity:0.4;fill:url(#linearGradient3834);fill-opacity:1;fill-rule:nonzero;stroke:none;stroke-width:1;marker:none;visibility:visible;display:inline;overflow:visible;enable-background:accumulate" /><path
       d="m 3.5052248,17.5 40.9895502,0"
       id="path3273"
       style="opacity:0.4;fill:none;stroke:url(#linearGradient3281);stroke-width:1px;stroke-linecap:square;stroke-linejoin:miter;stroke-opacity:1;display:inline" /><path
       d="m 39.868842,35.68866 c -0.01614,0.02016 -0.512682,0.04474 -0.191306,0.01518 0.06377,-0.0051 0.127535,-0.01013 0.191306,-0.01518 z m -0.472967,0.05085 c -0.175577,0.08983 -0.125664,0.08103 0.04003,0.08116 0.05082,0.01482 0.30906,0.01154 0.228833,-0.01722 -0.277469,-0.04193 0.297892,-0.02111 -0.02252,0.03046 -0.295709,0.0739 0.06678,0.04296 0.164036,0.02222 0.212612,0.01648 0.208824,-0.08293 0.443957,0.03295 0.179162,0.04353 0.34769,0.14247 0.51662,0.197819 0.223763,-0.106088 0.343642,0.116029 0.510749,0.19677 -0.280675,-0.26603 0.190203,0.06177 0.274304,0.142323 0.331211,0.279421 0.609443,0.64094 0.727571,1.062979 -0.120427,-0.224404 -0.04997,0.144654 -0.02734,0.21233 0.0418,0.08685 0.167158,0.653034 0.06131,0.27697 -0.0558,-0.142051 -0.151706,-0.559676 -0.256474,-0.546508 -0.206049,-0.04704 -0.0942,0.251176 0,0.213596 0.02146,0.103661 0.170114,0.547388 -0.01144,0.275893 0.121624,0.198895 0.04416,0.317115 0.116975,0.513652 0.08213,0.03254 -0.101286,0.325101 -0.04068,0.472967 -0.03301,-0.111866 -0.08495,-0.260056 -0.06365,-0.05177 0.03656,0.101253 -0.09403,0.470039 -0.01773,0.171288 0.01705,-0.426784 -0.06042,0.160358 -0.153918,0.276134 -0.08453,0.08328 -0.03494,0.355104 -0.146134,0.148514 -0.08452,0.06203 -0.155038,0.540605 -0.111882,0.244113 -0.212647,0.187764 -0.443016,0.418402 -0.727415,0.527322 -0.424521,0.193875 -0.931575,0.14959 -1.35262,0.0067 0.219375,0.268788 0.608316,0.231936 0.910332,0.249197 -0.506592,0.15139 -1.04549,-0.118067 -1.409843,-0.462633 -0.09888,-0.07796 -0.261458,-0.35706 -0.06119,-0.134929 0.0734,0.117881 0.452926,0.440398 0.179268,0.160199 -0.224584,-0.298178 0.21599,0.207926 0.366168,0.21868 -0.08042,-0.232967 -0.440586,-0.350522 -0.557851,-0.603743 -0.208235,-0.289303 -0.247476,-0.670535 -0.184335,-1.012858 0.09569,-0.16821 0.114462,-0.386035 0.280661,-0.511743 0.291564,-0.538976 1.117973,-0.615118 1.524345,-0.164333 0.230786,0.24122 -0.222578,-0.158608 -0.345979,-0.124101 -0.583134,-0.147744 -1.221464,0.297604 -1.280436,0.898373 -0.01953,0.09764 -0.02199,0.272731 0.02961,0.184119 -0.01922,0.727337 0.76653,1.398607 1.480243,1.173772 0.185745,-0.01839 0.360433,-0.132912 0.507652,-0.271294 -0.180127,0.218013 0.183697,-0.04547 0.256463,-0.13238 0.257727,-0.07679 0.117379,-0.373066 0.334069,-0.452944 0.05851,-0.07317 0.184821,-0.59919 0.05086,-0.315312 0.0873,-0.261817 0.04337,-0.538652 0.05085,-0.808619 -0.05865,-0.229769 -0.115704,-0.53569 -0.265251,-0.75943 -0.293695,-0.492334 -0.788518,-0.889641 -1.374857,-0.940748 -0.228798,-0.06551 -0.731215,0.03373 -0.766685,0.0448 0.314344,-0.101683 -0.275599,-0.01349 -0.324206,0.07882 -0.124458,0.07583 -0.459213,0.193895 -0.147485,0.122056 -0.170409,0.08736 -0.568716,0.129951 -0.603545,0.307797 0.21245,-0.03427 -0.203908,0.103948 -0.262169,0.156037 -0.260291,0.201681 -0.503668,0.436325 -0.680325,0.716039 0.126768,0.02582 -0.06291,0.20482 -0.07721,0.297741 -0.121948,0.191748 -0.147649,0.41494 -0.156738,0.638021 -0.03137,0.331608 -0.101539,0.703365 0.05384,1.010084 -0.03481,0.115999 -0.0035,0.219866 0.06314,0.317273 -0.10736,0.160914 0.195376,0.344808 0.325481,0.43737 0.101528,0.132615 0.129435,0.319737 -0.02543,0.142395 0.124383,0.222764 0.134396,0.419434 0.284797,0.564509 -0.134679,0.01453 0.192692,0.356265 0.249199,0.442452 0.06511,-0.07515 0.112903,0.36535 0.315307,0.294969 0.0232,0.166805 0.383618,0.192672 0.244112,0.325481 0.07609,-0.0055 0.446355,0.311584 0.338347,0.111404 0.04219,0.01158 0.164721,0.165585 0.240468,0.224409 0.218675,0.188763 0.534458,0.154111 0.784147,0.249039 -0.763072,0.04709 -1.498542,-0.304031 -2.040007,-0.824214 -0.796598,-0.731859 -1.288447,-1.814361 -1.226489,-2.903112 -0.01912,-0.26436 0.0354,-0.533086 -0.01884,-0.793826 0.102584,-0.295249 0.195192,-0.711767 0.371248,-0.915419 0.20401,-0.207496 0.247368,-0.530743 0.471697,-0.73233 0.236265,-0.257891 0.41407,-0.386577 0.644924,-0.51842 0.295937,-0.18897 0.621858,-0.327491 0.948158,-0.452948 -0.06178,0.104719 0.315568,-0.05586 0.350912,-0.02033 v 10e-7 z m -2.634373,1.490097 c 0.201492,0.0012 -0.159132,0.354163 -0.0029,0.06103 z m -0.127136,0.544167 c -0.01304,0.344243 -0.155715,0.304721 -6e-6,0 z m 4.24652,0.803533 c 0.09759,0.0747 -0.03936,0.292819 -0.0267,0.03561 z m 1.31719,0.361082 c -0.03391,0.245971 -0.108845,0.498804 -0.228856,0.711993 0.116201,-0.223045 0.160357,-0.474489 0.228856,-0.711993 z m -1.383305,0.08137 c 0.02619,0.173757 -0.261335,0.453667 -0.193251,0.167832 0.171425,-0.226287 0.0182,-0.003 -0.0051,0.09662 0.12555,-0.0257 0.151811,-0.172477 0.19834,-0.264456 z m -0.488216,0.45771 c -0.05961,0.230545 -0.537801,-0.02814 -0.196942,0.02033 0.06616,10e-4 0.132836,-0.0026 0.196942,-0.02035 v 10e-7 z m -1.510442,0.01526 c 0.07237,0.08974 0.204535,0.410583 0.05164,0.136998 -0.02225,-0.04319 -0.0496,-0.08708 -0.05164,-0.136998 z m -0.09663,0.167828 c 0.0786,0.120175 0.167268,0.271449 0.228856,0.391596 -0.08146,-0.110563 -0.283676,-0.237603 -0.228856,-0.391596 z"
       id="text2244"
       style="font-style:normal;font-weight:normal;font-size:18.0378px;font-family:OpenLogos;display:none;opacity:0.6;fill:#340000;fill-opacity:1;stroke:#3d0000;stroke-width:0.125622px;stroke-linecap:butt;stroke-linejoin:miter;stroke-opacity:1" /><g
       id="g1"
       transform="matrix(0.02683055,0,0,0.02683055,5.9718552,35.645624)"
       style="display:none"><path
         d="m 266.62575,133.50613 c 0,-73.52485 -59.60353,-133.1303 -133.12783,-133.1303 -73.49124,0 -133.07153,59.5554 -133.12367,133.03642 V 236.4333 c 0.03955,16.68433 13.5712,30.19087 30.26602,30.19087 h 102.91165 c 73.49975,-0.0288 133.07383,-59.61275 133.07383,-133.11804"
         id="voice"
         style="display:inline;fill:#dbc7ae;fill-opacity:1" /><path
         d="m 77.126289,142.09756 c 0,0 47.844751,0 47.844751,0 0,0 0,47.84478 0,47.84478 0,26.41029 -21.43445,47.84473 -47.844751,47.84473 -26.41031,0 -47.844759,-21.43444 -47.844759,-47.84473 0,-26.41031 21.434449,-47.84478 47.844759,-47.84478 z"
         id="in"
         style="display:inline;fill:none;fill-opacity:1;stroke:#b08b60;stroke-width:29.21;stroke-opacity:1" /><use
         transform="rotate(180,124.85576,142.1441)"
         id="finity"
         xlink:href="#in"
         style="display:inline;fill:none;fill-opacity:1" /><path
         d="m 139.6074,127.52923 v 62.34618 c 0,34.50402 -27.97537,62.48 -62.48061,62.48 -5.23494,0 -8.95649,-0.59101 -13.80235,-1.8577 -7.06595,-1.84912 -12.84046,-7.64253 -12.84286,-14.38111 0,-8.14513 5.91236,-14.0699 14.75029,-14.0699 4.20637,0 5.73267,0.80765 11.89492,0.80765 18.19161,0 32.94764,-14.73519 32.97955,-32.92679 v -28.65657 c 0,-2.56775 -2.08663,-4.64825 -4.65867,-4.64825 l -21.66521,-0.004 c -8.07212,0 -14.59401,-6.43843 -14.59401,-14.53266 -0.0043,-8.14456 6.5888,-14.55657 14.74808,-14.55657"
         id="free"
         style="display:inline;fill:#744b3a;fill-opacity:1" /><use
         transform="rotate(180,124.85576,142.1441)"
         id="dom"
         xlink:href="#free"
         style="display:inline" /><path
         d="m 243.65456,243.58425 c 0,0 4e-5,-5.53139 4e-5,-5.53139 l -2.52853,5.79776 c 0,0 -2.46141,-5.79776 -2.46141,-5.79776 l 4.7e-4,5.53139 h -1.4183 v -8.73492 h 1.48704 c 0,0 2.43397,5.58051 2.43397,5.58051 l 2.39711,-5.58051 h 1.50544 v 8.73492 z m -10.33302,-7.27184 v 7.27184 h -1.48213 v -7.27184 h -2.48488 v -1.46308 h 6.44946 v 1.46308"
         id="TM"
         style="display:none;fill:#3c6eb4" /></g><g
       id="g2"
       transform="matrix(0.24137623,0,0,0.24137623,10.211089,14.039025)"
       style="fill:#744a3a;fill-opacity:1;stroke:none;stroke-opacity:1"><g
         inkscape:label="Layer 1"
         id="layer1-7"
         transform="translate(-47.685615,-72.696547)"
         style="display:inline;fill:#744a3a;fill-opacity:1;stroke:none;stroke-opacity:1" /><g
         inkscape:label="Layer 1"
         id="g85"
         style="display:inline;fill:#744a3a;fill-opacity:1;stroke:none;stroke-width:0.641545;stroke-dasharray:none;stroke-opacity:1;paint-order:markers fill stroke"
         transform="matrix(1.1160562,0,0,1.1160562,-64.649252,-71.032414)"
         inkscape:export-filename="g85.png"
         inkscape:export-xdpi="802.32483"
         inkscape:export-ydpi="802.32483"><g
           id="g99"
           style="fill:#744a3a;fill-opacity:1;stroke:none;stroke-width:0.641545;stroke-dasharray:none;stroke-opacity:1;paint-order:markers fill stroke"><g
             id="g77"
             style="fill:#744a3a;fill-opacity:1;stroke:none;stroke-width:0.641545;stroke-dasharray:none;stroke-opacity:1;paint-order:markers fill stroke"><path
               style="fill:#744a3a;fill-opacity:1;stroke:none;stroke-width:0.641545;stroke-dasharray:none;stroke-opacity:1;paint-order:markers fill stroke"
               d="m 87.364822,120.87492 c 3.836176,7.07312 18.601688,26.83717 19.717598,7.87401 0.0497,-10.02409 -0.85762,-9.44118 -7.873961,-15.45519 C 89.312293,104.2147 74.987569,91.493392 68.94882,86.125136 44.18932,71.522225 63.740455,145.32594 84.566698,142.34948 51.060244,105.48625 61.034864,67.347 87.364822,120.87492 Z m 43.544598,0 c -3.83618,7.07312 -18.60169,26.83717 -19.7176,7.87401 -0.0497,-10.02409 0.85762,-9.44118 7.87396,-15.45519 9.89617,-9.07904 24.22089,-21.800348 30.25964,-27.168604 24.7595,-14.602911 5.20836,59.200804 -15.61788,56.224344 33.50646,-36.86323 23.53184,-75.00248 -2.79812,-21.47456 z"
               id="path71"
               sodipodi:nodetypes="cccccc"
               inkscape:path-effect="#path-effect5"
               inkscape:original-d="m 87.364822,120.87492 c 3.836176,7.07312 18.601688,26.83717 19.717598,7.87401 0.0497,-10.02409 -0.85762,-9.44118 -7.873961,-15.45519 C 89.312293,104.2147 74.987569,91.493392 68.94882,86.125136 44.18932,71.522225 63.740455,145.32594 84.566698,142.34948 51.060244,105.48625 61.034864,67.347 87.364822,120.87492 Z"
               inkscape:label="path71" /><path
               id="path83"
               style="display:inline;fill:#744a3a;fill-opacity:1;stroke:none;stroke-width:0.641545;stroke-dasharray:none;stroke-opacity:1;paint-order:markers fill stroke"
               d="m 142.15128,198.63862 c 6.83114,5.47333 13.11959,5.83335 14.73491,7.86498 -4.82795,-0.69463 -10.11546,-0.77315 -14.71685,0.0444 -4.60139,-0.81761 -9.55044,-0.72522 -14.37839,-0.0306 1.61532,-2.03163 7.52893,-2.40499 14.36033,-7.87887 z"
               transform="matrix(-1,0,0,1,251.28937,-47.804896)" /><path
               id="path74"
               style="fill:#744a3a;fill-opacity:1;stroke:none;stroke-width:0.641545;stroke-dasharray:none;stroke-opacity:1;paint-order:markers fill stroke"
               d="m 83.125226,148.90568 10.925589,3.91489 -11.538637,0.34774 11.558084,0.78066 -10.800109,4.0376 12.246606,-3.27453 -0.46488,-1.17239 0.0065,-0.46534 0.424133,-1.14877 z m 52.023874,0 -12.1577,3.01986 0.20975,1.25249 -0.0417,0.40607 -0.40191,1.12794 12.24661,3.27453 -10.80011,-4.0376 11.55808,-0.78066 -11.53863,-0.34774 z"
               sodipodi:nodetypes="cccccccccccccccccccc" /><path
               style="fill:#744a3a;fill-opacity:1;stroke:none;stroke-width:0.641545;stroke-dasharray:none;stroke-opacity:1;paint-order:markers fill stroke"
               d="m 104.57859,147.92813 c -3.63865,-8.96971 -5.275827,-1.19057 -10.077201,-7.59241 -1.081836,8.83493 6.287821,13.05903 10.077201,7.59241 z m 9.11706,0 c 3.63865,-8.96971 5.27583,-1.19057 10.0772,-7.59241 1.08184,8.83493 -6.28782,13.05903 -10.0772,7.59241 z"
               id="path75"
               sodipodi:nodetypes="ccc"
               inkscape:path-effect="#path-effect4"
               inkscape:original-d="m 104.57859,147.92813 c -3.63865,-8.96971 -5.275827,-1.19057 -10.077201,-7.59241 -1.081836,8.83493 6.287821,13.05903 10.077201,7.59241 z" /><path
               id="path77"
               style="display:inline;fill:#744a3a;fill-opacity:1;stroke:none;stroke-width:0.641545;stroke-dasharray:none;stroke-opacity:1;paint-order:markers fill stroke"
               d="m 94.489301,158.84919 14.644159,3.92184 14.28022,-3.9098 c -5.30751,-0.23135 -8.61292,-0.17582 -14.27744,0.24401 -5.66453,-0.41978 -9.339432,-0.48741 -14.646939,-0.25605 z" /></g><g
             id="g84"
             transform="matrix(-1,0,0,1,251.28937,-47.804895)"
             style="fill:#744a3a;fill-opacity:1;stroke:none;stroke-width:0.641545;stroke-dasharray:none;stroke-opacity:1;paint-order:markers fill stroke" /></g></g></g><path
       d="m 32.75536,28.955 h 5.284663 v -2.092453 l 5.234572,2.910194 -5.234572,2.958297 V 30.638584 H 32.75536"
       fill="#112244"
       id="path1"
       style="display:none;fill:#744a3a;fill-opacity:1;stroke:none;stroke-width:0.0245434;stroke-opacity:1" /></g></svg>
